<svg width="22" height="20" viewBox="0 0 22 20" fill="none" xmlns="http://www.w3.org/2000/svg">
<g id="Ticket Star">
<path id="Ticket Star_2" fill-rule="evenodd" clip-rule="evenodd" d="M19.4071 10.0011C19.4071 10.8824 20.1308 11.5994 21.0202 11.5994C21.4687 11.5994 21.8327 11.9601 21.8327 12.4045V15.3038C21.8327 17.7556 19.8198 19.75 17.3455 19.75H4.65427C2.17993 19.75 0.166016 17.7556 0.166016 15.3038V12.4045C0.166016 11.9601 0.530016 11.5994 0.978516 11.5994C1.86902 11.5994 2.59268 10.8824 2.59268 10.0011C2.59268 9.14233 1.89827 8.49612 0.978516 8.49612C0.762932 8.49612 0.557099 8.41132 0.404349 8.25996C0.251599 8.10861 0.166016 7.90358 0.166016 7.69104L0.168182 4.69724C0.168182 2.24551 2.18102 0.25 4.65535 0.25H17.3433C19.8177 0.25 21.8316 2.24551 21.8316 4.69724L21.8327 7.59766C21.8327 7.81019 21.7471 8.01629 21.5954 8.16658C21.4427 8.31793 21.2368 8.40273 21.0202 8.40273C20.1308 8.40273 19.4071 9.11978 19.4071 10.0011ZM13.439 10.702L14.7163 9.46972C14.9383 9.25718 15.0153 8.94374 14.9188 8.65391C14.8235 8.36409 14.5743 8.15799 14.2732 8.11612L12.5084 7.86065L11.7187 6.27626C11.5833 6.00361 11.3081 5.834 11.0015 5.83293H10.9993C10.6938 5.83293 10.4187 6.00253 10.2811 6.27518L9.49135 7.86065L7.72985 8.11505C7.42543 8.15799 7.17627 8.36409 7.07985 8.65391C6.98452 8.94374 7.06143 9.25718 7.28243 9.46972L8.55968 10.702L8.25852 12.4442C8.20652 12.7448 8.32893 13.0432 8.5781 13.2224C8.71893 13.3223 8.88252 13.3738 9.04827 13.3738C9.17502 13.3738 9.30285 13.3427 9.41985 13.2815L10.9993 12.4592L12.5756 13.2793C12.8486 13.4243 13.1725 13.4017 13.4206 13.2214C13.6708 13.0432 13.7933 12.7448 13.7413 12.4442L13.439 10.702Z" fill="#F47213"/>
</g>
</svg>
