<svg width="13" height="13" viewBox="0 0 13 13" fill="none" xmlns="http://www.w3.org/2000/svg">
<g id="Delete">
<path id="Delete_2" fill-rule="evenodd" clip-rule="evenodd" d="M11.6794 2.27685C11.9226 2.27685 12.125 2.47873 12.125 2.7356V2.9731C12.125 3.22372 11.9226 3.43184 11.6794 3.43184H1.32116C1.07741 3.43184 0.875 3.22372 0.875 2.9731V2.7356C0.875 2.47873 1.07741 2.27685 1.32116 2.27685H3.14348C3.51366 2.27685 3.83581 2.01373 3.91909 1.64249L4.01452 1.21624C4.16284 0.635621 4.65093 0.25 5.20954 0.25H7.79046C8.34299 0.25 8.83656 0.635621 8.9794 1.18562L9.08152 1.64186C9.16419 2.01373 9.48634 2.27685 9.85713 2.27685H11.6794ZM10.7536 10.9588C10.9439 9.18566 11.277 4.9732 11.277 4.9307C11.2892 4.80195 11.2472 4.68008 11.1639 4.58196C11.0746 4.49008 10.9615 4.43571 10.8369 4.43571H2.16783C2.04261 4.43571 1.92347 4.49008 1.84081 4.58196C1.75692 4.68008 1.71559 4.80195 1.72167 4.9307C1.72278 4.93851 1.73474 5.0869 1.75472 5.33497C1.84349 6.437 2.09073 9.50636 2.25049 10.9588C2.36355 12.0288 3.06561 12.7013 4.08254 12.7256C4.86727 12.7437 5.6757 12.75 6.50237 12.75C7.28102 12.75 8.07183 12.7437 8.88087 12.7256C9.93305 12.7075 10.6345 12.0469 10.7536 10.9588Z" fill="#03AEB9"/>
</g>
</svg>
