<svg width="20" height="16" viewBox="0 0 20 16" fill="none" xmlns="http://www.w3.org/2000/svg">
<g id="Show">
<path id="Show_2" fill-rule="evenodd" clip-rule="evenodd" d="M6.42342 7.99999C6.42342 9.95555 8.02423 11.5467 10.0007 11.5467C11.9681 11.5467 13.5689 9.95555 13.5689 7.99999C13.5689 6.03554 11.9681 4.44443 10.0007 4.44443C8.02423 4.44443 6.42342 6.03554 6.42342 7.99999ZM15.2592 2.54221C16.8242 3.7511 18.1567 5.51999 19.1137 7.73332C19.1852 7.90221 19.1852 8.09777 19.1137 8.25777C17.1998 12.6844 13.7925 15.3333 10.0007 15.3333H9.99171C6.20878 15.3333 2.80146 12.6844 0.887643 8.25777C0.816098 8.09777 0.816098 7.90221 0.887643 7.73332C2.80146 3.30666 6.20878 0.666656 9.99171 0.666656H10.0007C11.8966 0.666656 13.6941 1.32443 15.2592 2.54221ZM10.0017 10.2114C11.2269 10.2114 12.2286 9.21581 12.2286 7.99803C12.2286 6.77137 11.2269 5.77581 10.0017 5.77581C9.89441 5.77581 9.78709 5.7847 9.68872 5.80248C9.65294 6.78026 8.84807 7.56248 7.85538 7.56248H7.81067C7.78384 7.7047 7.76595 7.84692 7.76595 7.99803C7.76595 9.21581 8.76758 10.2114 10.0017 10.2114Z" fill="#0B182E"/>
</g>
</svg>
