<svg width="12" height="15" viewBox="0 0 12 15" fill="none" xmlns="http://www.w3.org/2000/svg">
<g id="Group">
<path id="Vector" d="M7.75032 5.1667H11.5653C11.3617 4.62704 11.0453 4.13704 10.6372 3.72937L8.60492 1.69587C8.19676 1.28831 7.70662 0.972137 7.16699 0.768372V4.58337C7.16699 4.90551 7.42815 5.1667 7.75032 5.1667Z" fill="#03AEB9"/>
<path id="Vector_2" d="M11.8196 6.33332H7.75032C6.78382 6.33332 6.00032 5.54982 6.00032 4.58332V0.514C5.90639 0.507574 5.81249 0.5 5.71739 0.5H3.08364C1.47361 0.501941 0.168906 1.80665 0.166992 3.41668V11.5834C0.168906 13.1934 1.47361 14.4981 3.08364 14.5H8.91696C10.527 14.4981 11.8317 13.1934 11.8336 11.5833V6.61625C11.8336 6.52118 11.8261 6.42725 11.8196 6.33332Z" fill="#03AEB9"/>
</g>
</svg>
