<svg width="18" height="16" viewBox="0 0 18 16" fill="none" xmlns="http://www.w3.org/2000/svg">
<g id="Filter">
<path id="Stroke 1" d="M7.46902 12.2102H1.69336" stroke="#69768D" stroke-width="1.5" stroke-linecap="round" stroke-linejoin="round"/>
<path id="Stroke 3" d="M10.0449 3.32535H15.8206" stroke="#69768D" stroke-width="1.5" stroke-linecap="round" stroke-linejoin="round"/>
<path id="Stroke 5" fill-rule="evenodd" clip-rule="evenodd" d="M5.99845 3.27573C5.99845 2.08805 5.02847 1.125 3.83223 1.125C2.636 1.125 1.66602 2.08805 1.66602 3.27573C1.66602 4.46342 2.636 5.42647 3.83223 5.42647C5.02847 5.42647 5.99845 4.46342 5.99845 3.27573Z" stroke="#69768D" stroke-width="1.5" stroke-linecap="round" stroke-linejoin="round"/>
<path id="Stroke 7" fill-rule="evenodd" clip-rule="evenodd" d="M16.3324 12.1743C16.3324 10.9866 15.3632 10.0235 14.167 10.0235C12.97 10.0235 12 10.9866 12 12.1743C12 13.3619 12.97 14.325 14.167 14.325C15.3632 14.325 16.3324 13.3619 16.3324 12.1743Z" stroke="#69768D" stroke-width="1.5" stroke-linecap="round" stroke-linejoin="round"/>
</g>
</svg>
