<svg width="19" height="18" viewBox="0 0 19 18" fill="none" xmlns="http://www.w3.org/2000/svg">
<g id="Category">
<path id="Stroke 1" fill-rule="evenodd" clip-rule="evenodd" d="M1.625 4.1875C1.625 1.89044 1.6496 1.125 4.6875 1.125C7.7254 1.125 7.75 1.89044 7.75 4.1875C7.75 6.48456 7.75969 7.25 4.6875 7.25C1.61531 7.25 1.625 6.48456 1.625 4.1875Z" stroke="#0B182E" stroke-width="1.5" stroke-linecap="round" stroke-linejoin="round"/>
<path id="Stroke 3" fill-rule="evenodd" clip-rule="evenodd" d="M11.25 4.1875C11.25 1.89044 11.2746 1.125 14.3125 1.125C17.3504 1.125 17.375 1.89044 17.375 4.1875C17.375 6.48456 17.3847 7.25 14.3125 7.25C11.2403 7.25 11.25 6.48456 11.25 4.1875Z" stroke="#0B182E" stroke-width="1.5" stroke-linecap="round" stroke-linejoin="round"/>
<path id="Stroke 5" fill-rule="evenodd" clip-rule="evenodd" d="M1.625 13.8125C1.625 11.5154 1.6496 10.75 4.6875 10.75C7.7254 10.75 7.75 11.5154 7.75 13.8125C7.75 16.1096 7.75969 16.875 4.6875 16.875C1.61531 16.875 1.625 16.1096 1.625 13.8125Z" stroke="#0B182E" stroke-width="1.5" stroke-linecap="round" stroke-linejoin="round"/>
<path id="Stroke 7" fill-rule="evenodd" clip-rule="evenodd" d="M11.25 13.8125C11.25 11.5154 11.2746 10.75 14.3125 10.75C17.3504 10.75 17.375 11.5154 17.375 13.8125C17.375 16.1096 17.3847 16.875 14.3125 16.875C11.2403 16.875 11.25 16.1096 11.25 13.8125Z" stroke="#0B182E" stroke-width="1.5" stroke-linecap="round" stroke-linejoin="round"/>
</g>
</svg>
