<svg width="16" height="18" viewBox="0 0 16 18" fill="none" xmlns="http://www.w3.org/2000/svg">
<g id="Paper Download">
<path id="Paper Download_2" fill-rule="evenodd" clip-rule="evenodd" d="M8.38076 13.2133L10.8079 10.7619C11.0532 10.5056 11.0532 10.1042 10.7995 9.85645C10.5542 9.60874 10.1567 9.60874 9.91149 9.85645L8.56682 11.2231V7.10604C8.56682 6.74729 8.28773 6.46541 7.94099 6.46541C7.59425 6.46541 7.30671 6.74729 7.30671 7.10604V11.2231L5.96203 9.85645C5.71677 9.60874 5.31929 9.60874 5.07404 9.85645C4.82878 10.1042 4.82878 10.5056 5.07404 10.7619L7.49276 13.2133C7.55196 13.2731 7.61962 13.3158 7.69573 13.35C7.77185 13.3842 7.85642 13.4012 7.94099 13.4012C8.02556 13.4012 8.10168 13.3842 8.17779 13.35C8.2539 13.3158 8.32156 13.2731 8.38076 13.2133ZM14.5091 6.70937C14.7079 6.70708 14.9244 6.70458 15.1211 6.70458C15.3409 6.70458 15.5101 6.87541 15.5101 7.08895V13.9565C15.5101 16.0748 13.8018 17.7917 11.7044 17.7917H4.98101C2.77371 17.7917 0.989258 15.9894 0.989258 13.7685V4.56062C0.989258 2.44229 2.68913 0.708328 4.80341 0.708328H9.3195C9.53092 0.708328 9.70852 0.887703 9.70852 1.10124V3.85166C9.70852 5.41479 10.9771 6.69604 12.5332 6.70458C12.8906 6.70458 13.2104 6.70729 13.4896 6.70966C13.7059 6.71149 13.8978 6.71312 14.0639 6.71312C14.1843 6.71312 14.3404 6.71132 14.5091 6.70937ZM14.7451 5.46271C14.0508 5.46527 13.2313 5.46271 12.6419 5.45673C11.7065 5.45673 10.9361 4.67858 10.9361 3.73387V1.48229C10.9361 1.11414 11.3784 0.931351 11.6304 1.197C12.2817 1.88038 13.2789 2.92773 14.1216 3.81289C14.4628 4.17129 14.7787 4.5031 15.0361 4.77339C15.283 5.03221 15.102 5.46185 14.7451 5.46271Z" fill="white"/>
</g>
</svg>
