<svg width="19" height="20" viewBox="0 0 19 20" fill="none" xmlns="http://www.w3.org/2000/svg">
<g id="fi:help-circle">
<path id="Vector" d="M9.49967 17.9167C13.8719 17.9167 17.4163 14.3722 17.4163 9.99999C17.4163 5.62774 13.8719 2.08333 9.49967 2.08333C5.12742 2.08333 1.58301 5.62774 1.58301 9.99999C1.58301 14.3722 5.12742 17.9167 9.49967 17.9167Z" stroke="#0B182E" stroke-width="1.2" stroke-linecap="round" stroke-linejoin="round"/>
<path id="Vector_2" d="M9.5 13.9583H9.50838" stroke="#0B182E" stroke-width="1.2" stroke-linecap="round" stroke-linejoin="round"/>
<path id="Vector_3" d="M7.19629 7.62499C7.38241 7.0959 7.74978 6.64974 8.23334 6.36556C8.71689 6.08137 9.28541 5.97749 9.83822 6.07231C10.391 6.16713 10.8924 6.45453 11.2536 6.88362C11.6148 7.31271 11.8125 7.85578 11.8117 8.41666C11.8117 9.99999 9.43671 10.7917 9.43671 10.7917" stroke="#0B182E" stroke-width="1.2" stroke-linecap="round" stroke-linejoin="round"/>
</g>
</svg>
