<svg width="20" height="21" viewBox="0 0 20 21" fill="none" xmlns="http://www.w3.org/2000/svg">
    <g id="fi:users">
        <path id="Vector" d="M19.166 18V16.3333C19.1655 15.5948 18.9196 14.8773 18.4672 14.2936C18.0147 13.7099 17.3811 13.293 16.666 13.1083" stroke="#03AEB9" stroke-width="1.4" stroke-linecap="round" stroke-linejoin="round" />
        <path id="Vector_2" d="M14.1673 18V16.3333C14.1673 15.4493 13.8161 14.6014 13.191 13.9763C12.5659 13.3512 11.718 13 10.834 13H4.16732C3.28326 13 2.43542 13.3512 1.8103 13.9763C1.18517 14.6014 0.833984 15.4493 0.833984 16.3333V18" stroke="#03AEB9" stroke-width="1.4" stroke-linecap="round" stroke-linejoin="round" />
        <path id="Vector_3" d="M13.334 3.10834C14.051 3.29192 14.6865 3.70892 15.1403 4.2936C15.5942 4.87827 15.8405 5.59736 15.8405 6.3375C15.8405 7.07765 15.5942 7.79674 15.1403 8.38141C14.6865 8.96609 14.051 9.38309 13.334 9.56667" stroke="#03AEB9" stroke-width="1.4" stroke-linecap="round" stroke-linejoin="round" />
        <path id="Vector_4" d="M7.49935 9.66667C9.3403 9.66667 10.8327 8.17428 10.8327 6.33333C10.8327 4.49238 9.3403 3 7.49935 3C5.6584 3 4.16602 4.49238 4.16602 6.33333C4.16602 8.17428 5.6584 9.66667 7.49935 9.66667Z" stroke="#03AEB9" stroke-width="1.4" stroke-linecap="round" stroke-linejoin="round" />
    </g>
</svg>