<svg width="18" height="17" viewBox="0 0 18 17" fill="none" xmlns="http://www.w3.org/2000/svg">
    <g id="Discount">
        <path id="Stroke 1" d="M2.99499 4.38001C2.99499 3.33918 3.83832 2.49584 4.87915 2.49501H5.73665C6.23415 2.49501 6.71082 2.29751 7.06415 1.94751L7.66332 1.34751C8.39749 0.609177 9.59082 0.605843 10.3292 1.34001L10.33 1.34084L10.3375 1.34751L10.9375 1.94751C11.2908 2.29834 11.7675 2.49501 12.265 2.49501H13.1217C14.1625 2.49501 15.0067 3.33834 15.0067 4.38001V5.23584C15.0067 5.73334 15.2033 6.21084 15.5542 6.56418L16.1542 7.16418C16.8925 7.89834 16.8967 9.09168 16.1625 9.83001L16.1617 9.83084L16.1542 9.83834L15.5542 10.4383C15.2033 10.7908 15.0067 11.2675 15.0067 11.765V12.6225C15.0067 13.6633 14.1633 14.5067 13.1225 14.5067H13.1217H12.2633C11.7658 14.5067 11.2883 14.7042 10.9358 15.055L10.3358 15.6542C9.60249 16.3925 8.40999 16.3967 7.67165 15.6642C7.67082 15.6633 7.66999 15.6625 7.66915 15.6617L7.66165 15.6542L7.06249 15.055C6.70999 14.7042 6.23249 14.5075 5.73499 14.5067H4.87915C3.83832 14.5067 2.99499 13.6633 2.99499 12.6225V11.7633C2.99499 11.2658 2.79749 10.7892 2.44665 10.4367L1.84749 9.83668C1.10915 9.10334 1.10499 7.91084 1.83832 7.17251C1.83832 7.17168 1.83915 7.17084 1.83999 7.17001L1.84749 7.16251L2.44665 6.56251C2.79749 6.20918 2.99499 5.73251 2.99499 5.23418V4.38001" stroke="#03AEB9" stroke-width="1.5" stroke-linecap="round" stroke-linejoin="round" />
        <path id="Stroke 3" d="M6.85938 10.6431L11.1427 6.35974" stroke="#03AEB9" stroke-width="1.5" stroke-linecap="round" stroke-linejoin="round" />
        <path id="Stroke 11" d="M11.0789 10.5834H11.0864" stroke="#03AEB9" stroke-width="2" stroke-linecap="round" stroke-linejoin="round" />
        <path id="Stroke 11_2" d="M6.91292 6.41667H6.92042" stroke="#03AEB9" stroke-width="2" stroke-linecap="round" stroke-linejoin="round" />
    </g>
</svg>