<svg width="18" height="19" viewBox="0 0 18 19" fill="none" xmlns="http://www.w3.org/2000/svg">
    <g id="Home">
        <path id="Home_2" d="M6.63166 16.8095V14.2539C6.63165 13.6039 7.16158 13.0757 7.81816 13.0713H10.2232C10.8829 13.0713 11.4177 13.6008 11.4177 14.2539V14.2539V16.8174C11.4176 17.3693 11.8625 17.8204 12.4198 17.8333H14.0232C15.6216 17.8333 16.9173 16.5506 16.9173 14.9682V14.9682V7.69819C16.9088 7.07568 16.6135 6.49111 16.1156 6.11085L10.6321 1.73774C9.67143 0.976295 8.30582 0.976295 7.34517 1.73774L1.88567 6.11879C1.38587 6.49751 1.09014 7.08305 1.08398 7.70612V14.9682C1.08398 16.5506 2.37971 17.8333 3.97808 17.8333H5.58145C6.15261 17.8333 6.61563 17.3749 6.61563 16.8095V16.8095" stroke="#03AEB9" stroke-width="1.5" stroke-linecap="round" stroke-linejoin="round" />
    </g>
</svg>