<svg width="20" height="21" viewBox="0 0 20 21" fill="none" xmlns="http://www.w3.org/2000/svg">
    <path fill-rule="evenodd" clip-rule="evenodd" d="M14.8812 17.5142C16.442 17.5142 17.7078 16.2492 17.7087 14.6884V14.6867V12.4367C16.6778 12.4367 15.8428 11.6017 15.842 10.5709C15.842 9.54089 16.677 8.70506 17.7078 8.70506H17.7087V6.45506C17.7103 4.89339 16.4462 3.62673 14.8853 3.62506H14.8803H5.12033C3.55866 3.62506 2.29283 4.89006 2.29199 6.45173V6.45256V8.77756C3.28699 8.74256 4.12116 9.52089 4.15616 10.5159C4.15699 10.5342 4.15783 10.5526 4.15783 10.5709C4.15866 11.6001 3.32616 12.4351 2.29699 12.4367H2.29199V14.6867C2.29116 16.2476 3.55699 17.5142 5.11783 17.5142H5.11866H14.8812Z" stroke="#03AEB9" stroke-width="1.5" stroke-linecap="round" stroke-linejoin="round" />
    <circle cx="9.99967" cy="10.5" r="1.66667" fill="#03AEB9" />
</svg>