<svg width="15" height="16" viewBox="0 0 15 16" fill="none" xmlns="http://www.w3.org/2000/svg">
<g id="Send">
<path id="Send_2" d="M14.1827 1.32892C13.8284 0.965277 13.304 0.829801 12.8151 0.972408L1.41335 4.28802C0.897469 4.43134 0.531819 4.84276 0.43332 5.36541C0.332696 5.89733 0.684173 6.57258 1.14336 6.85494L4.70845 9.04609C5.0741 9.2707 5.54604 9.21437 5.84862 8.90919L9.931 4.8014C10.1365 4.58749 10.4766 4.58749 10.6821 4.8014C10.8876 5.00818 10.8876 5.34331 10.6821 5.55722L6.59267 9.66572C6.28938 9.97019 6.23269 10.4444 6.45591 10.8123L8.63422 14.4131C8.88932 14.8409 9.32867 15.0834 9.81053 15.0834C9.86722 15.0834 9.931 15.0834 9.98769 15.0762C10.5404 15.0049 10.9798 14.627 11.1427 14.0922L14.5229 2.70508C14.6717 2.22022 14.5371 1.69257 14.1827 1.32892Z" fill="#03AEB9"/>
</g>
</svg>
