<svg width="18" height="16" viewBox="0 0 18 16" fill="none" xmlns="http://www.w3.org/2000/svg">
<g id="Ticket Star">
<path id="Ticket Star_2" fill-rule="evenodd" clip-rule="evenodd" d="M15.8055 8.00088C15.8055 8.71416 16.3912 9.29452 17.111 9.29452C17.474 9.29452 17.7687 9.58644 17.7687 9.94612V12.2927C17.7687 14.2771 16.1395 15.8913 14.1369 15.8913H3.86505C1.86241 15.8913 0.232422 14.2771 0.232422 12.2927V9.94612C0.232422 9.58644 0.527031 9.29452 0.890031 9.29452C1.61077 9.29452 2.19648 8.71416 2.19648 8.00088C2.19648 7.30584 1.63444 6.78282 0.890031 6.78282C0.715545 6.78282 0.548951 6.71419 0.42532 6.59168C0.30169 6.46918 0.232422 6.30324 0.232422 6.13122L0.234175 3.70814C0.234175 1.7238 1.86329 0.108704 3.86593 0.108704H14.1351C16.1378 0.108704 17.7678 1.7238 17.7678 3.70814L17.7687 6.05563C17.7687 6.22766 17.6994 6.39447 17.5766 6.5161C17.453 6.6386 17.2864 6.70723 17.111 6.70723C16.3912 6.70723 15.8055 7.28759 15.8055 8.00088ZM10.9751 8.5682L12.0089 7.57082C12.1886 7.3988 12.2509 7.14511 12.1728 6.91053C12.0957 6.67596 11.894 6.50915 11.6503 6.47527L10.2219 6.26849L9.58274 4.98614C9.47314 4.76547 9.25043 4.6282 9.00229 4.62733H9.00054C8.75328 4.62733 8.53057 4.7646 8.41921 4.98527L7.78002 6.26849L6.35432 6.4744C6.10794 6.50915 5.90627 6.67596 5.82823 6.91053C5.75107 7.14511 5.81333 7.3988 5.9922 7.57082L7.02596 8.5682L6.7822 9.97826C6.74012 10.2215 6.8392 10.4631 7.04086 10.6081C7.15485 10.6889 7.28725 10.7306 7.4214 10.7306C7.52399 10.7306 7.62745 10.7055 7.72215 10.6559L9.00054 9.99043L10.2763 10.6542C10.4973 10.7715 10.7594 10.7532 10.9602 10.6073C11.1628 10.4631 11.2618 10.2215 11.2197 9.97826L10.9751 8.5682Z" fill="#0B182E"/>
</g>
</svg>
