<svg width="18" height="18" viewBox="0 0 18 18" fill="none" xmlns="http://www.w3.org/2000/svg">
<g id="Buy">
<path id="Buy_2" fill-rule="evenodd" clip-rule="evenodd" d="M10.8605 8.32758H13.2874C13.6554 8.32758 13.9445 8.02335 13.9445 7.65648C13.9445 7.28067 13.6554 6.98539 13.2874 6.98539H10.8605C10.4925 6.98539 10.2034 7.28067 10.2034 7.65648C10.2034 8.02335 10.4925 8.32758 10.8605 8.32758ZM16.1699 3.67554C16.7043 3.67554 17.0547 3.86345 17.4052 4.27506C17.7556 4.68666 17.817 5.27723 17.7381 5.81321L16.9058 11.6831C16.7481 12.8114 15.8019 13.6427 14.6892 13.6427H5.13063C3.96538 13.6427 3.00164 12.7309 2.90526 11.5497L2.09923 1.79558L0.776272 1.56293C0.42582 1.5003 0.180504 1.15133 0.241833 0.793412C0.303162 0.427441 0.644853 0.184952 1.00407 0.239534L3.09363 0.560766C3.39152 0.615348 3.61055 0.864996 3.63683 1.16923L3.8033 3.17356C3.82958 3.46079 4.05737 3.67554 4.33774 3.67554H16.1699ZM4.99028 15.0569C4.25433 15.0569 3.65856 15.6653 3.65856 16.417C3.65856 17.1596 4.25433 17.7681 4.99028 17.7681C5.71746 17.7681 6.31323 17.1596 6.31323 16.417C6.31323 15.6653 5.71746 15.0569 4.99028 15.0569ZM14.8467 15.0569C14.1108 15.0569 13.515 15.6653 13.515 16.417C13.515 17.1596 14.1108 17.7681 14.8467 17.7681C15.5739 17.7681 16.1697 17.1596 16.1697 16.417C16.1697 15.6653 15.5739 15.0569 14.8467 15.0569Z" fill="#0B182E"/>
</g>
</svg>
