<svg width="20" height="16" viewBox="0 0 20 16" fill="none" xmlns="http://www.w3.org/2000/svg">
<g id="3 User">
<path id="3 Friends" fill-rule="evenodd" clip-rule="evenodd" d="M13.6465 4.69692C13.6465 6.75715 12.004 8.40912 9.9557 8.40912C7.90738 8.40912 6.26495 6.75715 6.26495 4.69692C6.26495 2.6359 7.90738 0.985504 9.9557 0.985504C12.004 0.985504 13.6465 2.6359 13.6465 4.69692ZM9.9557 15.0145C6.9472 15.0145 4.37836 14.5375 4.37836 12.6297C4.37836 10.7211 6.93072 10.2268 9.9557 10.2268C12.9642 10.2268 15.5331 10.7037 15.5331 12.6123C15.5331 14.5202 12.9807 15.0145 9.9557 15.0145ZM15.2236 4.76388C15.2236 5.81413 14.9104 6.79252 14.3608 7.60588C14.3043 7.68958 14.3545 7.8025 14.4542 7.81987C14.5916 7.84356 14.7337 7.85699 14.8782 7.86094C16.3189 7.89884 17.6119 6.96625 17.9691 5.56223C18.4983 3.47673 16.9446 1.60444 14.9661 1.60444C14.751 1.60444 14.5453 1.62734 14.3451 1.6684C14.3176 1.67472 14.2886 1.68736 14.2729 1.71184C14.254 1.74184 14.2682 1.78212 14.287 1.80817C14.8813 2.64601 15.2236 3.66783 15.2236 4.76388ZM17.6096 9.32624C18.5776 9.51654 19.2143 9.90506 19.4781 10.4697C19.7011 10.9332 19.7011 11.471 19.4781 11.9337C19.0746 12.8094 17.7736 13.0906 17.268 13.1632C17.1636 13.179 17.0796 13.0882 17.0906 12.9832C17.3489 10.5565 15.2943 9.40599 14.7628 9.14145C14.74 9.12961 14.7353 9.11145 14.7377 9.10039C14.7392 9.09249 14.7487 9.07986 14.7659 9.07749C15.9161 9.05617 17.1526 9.2141 17.6096 9.32624ZM5.12279 7.86086C5.26725 7.85691 5.40857 7.84428 5.54674 7.8198C5.64645 7.80242 5.6967 7.6895 5.64017 7.6058C5.0906 6.79245 4.77735 5.81405 4.77735 4.7638C4.77735 3.66775 5.11965 2.64593 5.71397 1.8081C5.73281 1.78204 5.74616 1.74176 5.7281 1.71176C5.7124 1.68807 5.68256 1.67464 5.65587 1.66833C5.45489 1.62726 5.24919 1.60436 5.03407 1.60436C3.05562 1.60436 1.50191 3.47665 2.03185 5.56215C2.38907 6.96617 3.68213 7.89876 5.12279 7.86086ZM5.26293 9.09992C5.26528 9.11176 5.26057 9.12914 5.23859 9.14177C4.70629 9.40631 2.65169 10.5568 2.90999 12.9827C2.92098 13.0885 2.83776 13.1785 2.73334 13.1635C2.22773 13.0909 0.926825 12.8098 0.523284 11.934C0.29953 11.4705 0.29953 10.9335 0.523284 10.47C0.787077 9.90537 1.42301 9.51686 2.39104 9.32576C2.84875 9.21442 4.08449 9.05649 5.23545 9.07781C5.25272 9.08018 5.26136 9.09281 5.26293 9.09992Z" fill="#0B182E"/>
</g>
</svg>
