<svg width="16" height="17" viewBox="0 0 16 17" fill="none" xmlns="http://www.w3.org/2000/svg">
<g id="Sidebar">
<path id="Shape" fill-rule="evenodd" clip-rule="evenodd" d="M11.0119 6.73978C11.3264 7.00934 11.7999 6.97292 12.0695 6.65843C12.339 6.34393 12.3026 5.87046 11.9881 5.60089L8.48811 2.60089C8.20724 2.36015 7.79279 2.36015 7.51192 2.60089L4.01192 5.60089C3.69743 5.87046 3.661 6.34393 3.93057 6.65843C4.20014 6.97292 4.67361 7.00934 4.98811 6.73978L8.00001 4.15814L11.0119 6.73978ZM4.98813 10.6009C4.67364 10.3314 4.20016 10.3678 3.9306 10.6823C3.66103 10.9968 3.69745 11.4702 4.01195 11.7398L7.51195 14.7398C7.79281 14.9805 8.20727 14.9805 8.48813 14.7398L11.9881 11.7398C12.3026 11.4702 12.339 10.9968 12.0695 10.6823C11.7999 10.3678 11.3264 10.3314 11.0119 10.6009L8.00004 13.1826L4.98813 10.6009Z" fill="#69768D"/>
</g>
</svg>
