<svg width="18" height="15" viewBox="0 0 18 15" fill="none" xmlns="http://www.w3.org/2000/svg">
<g id="Wallet">
<path id="Fill 1" fill-rule="evenodd" clip-rule="evenodd" d="M17.3307 4.47927H13.8018C12.1596 4.48216 10.8292 5.77929 10.8263 7.38047C10.824 8.98527 12.1559 10.2882 13.8018 10.2903H17.3337V10.5453C17.3337 13.3446 15.6366 15 12.7648 15H5.23662C2.36403 15 0.666992 13.3446 0.666992 10.5453V4.44822C0.666992 1.64885 2.36403 0 5.23662 0H12.7618C15.6337 0 17.3307 1.64885 17.3307 4.44822V4.47927ZM4.61662 4.47277H9.31662H9.31958H9.32551C9.67736 4.47133 9.96181 4.19182 9.96033 3.84804C9.95884 3.50498 9.67144 3.22765 9.31958 3.22909H4.61662C4.26699 3.23054 3.98329 3.50715 3.98181 3.84876C3.98033 4.19182 4.26477 4.47133 4.61662 4.47277Z" fill="#03AEB9"/>
<path id="Fill 4" opacity="0.4" d="M12.3652 7.74722C12.5394 8.53988 13.2344 9.09756 14.0278 9.08306H16.7361C17.0662 9.08306 17.334 8.80965 17.334 8.47171V6.36208C17.3333 6.02485 17.0662 5.75073 16.7361 5.75H13.9641C13.0615 5.7529 12.3326 6.50204 12.334 7.42523C12.334 7.53329 12.3446 7.64134 12.3652 7.74722Z" fill="#03AEB9"/>
<ellipse id="Oval" cx="14.0003" cy="7.41668" rx="0.833333" ry="0.833333" fill="#03AEB9"/>
</g>
</svg>
